<?xml version="1.0" encoding="UTF-8" standalone="no"?>
<!DOCTYPE svg PUBLIC "-//W3C//DTD SVG 1.1//EN"
 "http://www.w3.org/Graphics/SVG/1.1/DTD/svg11.dtd">
<!-- Generated by graphviz version 12.2.1 (20241206.2353)
 -->
<!-- Title: architecture Pages: 1 -->
<svg width="416pt" height="506pt"
 viewBox="0.00 0.00 415.86 505.50" xmlns="http://www.w3.org/2000/svg" xmlns:xlink="http://www.w3.org/1999/xlink">
<g id="graph0" class="graph" transform="scale(1 1) rotate(0) translate(4 501.5)">
<title>architecture</title>
<polygon fill="white" stroke="none" points="-4,4 -4,-501.5 411.86,-501.5 411.86,4 -4,4"/>
<g id="clust1" class="cluster">
<title>cluster_browser</title>
<polygon fill="#e8f5f4" stroke="#43b3ae" points="37,-203 37,-489.5 307,-489.5 307,-203 37,-203"/>
<text text-anchor="middle" x="172" y="-473.15" font-family="Helvetica,sans-Serif" font-weight="bold" font-size="13.00">Browser (Single HTML File &#45; 1658 Lines)</text>
</g>
<g id="clust2" class="cluster">
<title>cluster_hapi</title>
<polygon fill="#fff3e0" stroke="#e65100" points="8,-8 8,-162.5 336,-162.5 336,-8 8,-8"/>
<text text-anchor="middle" x="172" y="-146.15" font-family="Helvetica,sans-Serif" font-weight="bold" font-size="13.00">HAPI FHIR R4 Server (hapi.fhir.org/baseR4)</text>
</g>
<!-- ui -->
<g id="node1" class="node">
<title>ui</title>
<polygon fill="#ffffff" stroke="#43b3ae" points="223.75,-460 80.25,-460 80.25,-416 223.75,-416 223.75,-460"/>
<text text-anchor="middle" x="152" y="-445.55" font-family="Helvetica,sans-Serif" font-size="11.00">UI Layer</text>
<text text-anchor="middle" x="152" y="-433.55" font-family="Helvetica,sans-Serif" font-size="11.00">HTML/CSS Views</text>
<text text-anchor="middle" x="152" y="-421.55" font-family="Helvetica,sans-Serif" font-size="11.00">(Home, Patient List, Form)</text>
</g>
<!-- js -->
<g id="node2" class="node">
<title>js</title>
<polygon fill="#ffffff" stroke="#43b3ae" points="215.5,-357.5 88.5,-357.5 88.5,-313.5 215.5,-313.5 215.5,-357.5"/>
<text text-anchor="middle" x="152" y="-343.05" font-family="Helvetica,sans-Serif" font-size="11.00">JavaScript SPA Engine</text>
<text text-anchor="middle" x="152" y="-331.05" font-family="Helvetica,sans-Serif" font-size="11.00">STATE Object</text>
<text text-anchor="middle" x="152" y="-319.05" font-family="Helvetica,sans-Serif" font-size="11.00">(Centralized State)</text>
</g>
<!-- ui&#45;&gt;js -->
<g id="edge1" class="edge">
<title>ui&#45;&gt;js</title>
<path fill="none" stroke="black" d="M152,-415.69C152,-402.1 152,-384.22 152,-368.89"/>
<polygon fill="black" stroke="black" points="155.5,-369.3 152,-359.3 148.5,-369.3 155.5,-369.3"/>
<text text-anchor="middle" x="200.38" y="-388.5" font-family="Helvetica,sans-Serif" font-size="10.00">User Actions</text>
<text text-anchor="middle" x="200.38" y="-377.25" font-family="Helvetica,sans-Serif" font-size="10.00">(click, submit, search)</text>
</g>
<!-- fc -->
<g id="node3" class="node">
<title>fc</title>
<polygon fill="#ffffff" stroke="#43b3ae" points="200.12,-255 103.88,-255 103.88,-211 200.12,-211 200.12,-255"/>
<text text-anchor="middle" x="152" y="-240.55" font-family="Helvetica,sans-Serif" font-size="11.00">fhirFetch() Client</text>
<text text-anchor="middle" x="152" y="-228.55" font-family="Helvetica,sans-Serif" font-size="11.00">REST Wrapper</text>
<text text-anchor="middle" x="152" y="-216.55" font-family="Helvetica,sans-Serif" font-size="11.00">(Error Handling)</text>
</g>
<!-- js&#45;&gt;fc -->
<g id="edge2" class="edge">
<title>js&#45;&gt;fc</title>
<path fill="none" stroke="black" d="M152,-313.19C152,-299.6 152,-281.72 152,-266.39"/>
<polygon fill="black" stroke="black" points="155.5,-266.8 152,-256.8 148.5,-266.8 155.5,-266.8"/>
<text text-anchor="middle" x="171.5" y="-286" font-family="Helvetica,sans-Serif" font-size="10.00">API Call</text>
<text text-anchor="middle" x="171.5" y="-274.75" font-family="Helvetica,sans-Serif" font-size="10.00">Dispatch</text>
</g>
<!-- re -->
<g id="node4" class="node">
<title>re</title>
<polygon fill="#ffffff" stroke="#e65100" points="217.88,-133 126.12,-133 126.12,-97 217.88,-97 217.88,-133"/>
<text text-anchor="middle" x="172" y="-116.55" font-family="Helvetica,sans-Serif" font-size="11.00">REST Endpoint</text>
<text text-anchor="middle" x="172" y="-104.55" font-family="Helvetica,sans-Serif" font-size="11.00">FHIR R4 API</text>
</g>
<!-- fc&#45;&gt;re -->
<g id="edge3" class="edge">
<title>fc&#45;&gt;re</title>
<path fill="none" stroke="#43b3ae" stroke-width="2" d="M141.94,-210.5C137.7,-198.62 134.51,-183.65 138.25,-170.5 140.86,-161.33 145.5,-152.2 150.52,-144.1"/>
<polygon fill="#43b3ae" stroke="#43b3ae" stroke-width="2" points="153.32,-146.21 156.01,-135.96 147.51,-142.3 153.32,-146.21"/>
<text text-anchor="middle" x="210.62" y="-183.5" font-family="Helvetica,sans-Serif" font-size="10.00">HTTP GET/POST/PUT/DELETE</text>
<text text-anchor="middle" x="210.62" y="-172.25" font-family="Helvetica,sans-Serif" font-size="10.00">Accept: application/fhir+json</text>
</g>
<!-- re&#45;&gt;fc -->
<g id="edge4" class="edge">
<title>re&#45;&gt;fc</title>
<path fill="none" stroke="#e65100" stroke-width="2" stroke-dasharray="5,2" d="M218.08,-128.15C257.68,-140.92 305.15,-163.29 283,-193 266.86,-214.64 239.19,-224.75 213.43,-229.3"/>
<polygon fill="#e65100" stroke="#e65100" stroke-width="2" points="212.99,-225.83 203.59,-230.73 213.99,-232.76 212.99,-225.83"/>
<text text-anchor="middle" x="348.24" y="-183.5" font-family="Helvetica,sans-Serif" font-size="10.00">JSON Bundle / Resource</text>
<text text-anchor="middle" x="348.24" y="-172.25" font-family="Helvetica,sans-Serif" font-size="10.00">OperationOutcome on Error</text>
</g>
<!-- pr -->
<g id="node5" class="node">
<title>pr</title>
<path fill="#ffffff" stroke="#e65100" d="M107.88,-56C107.88,-58.21 87.31,-60 62,-60 36.69,-60 16.12,-58.21 16.12,-56 16.12,-56 16.12,-20 16.12,-20 16.12,-17.79 36.69,-16 62,-16 87.31,-16 107.88,-17.79 107.88,-20 107.88,-20 107.88,-56 107.88,-56"/>
<path fill="none" stroke="#e65100" d="M107.88,-56C107.88,-53.79 87.31,-52 62,-52 36.69,-52 16.12,-53.79 16.12,-56"/>
<text text-anchor="middle" x="62" y="-39.55" font-family="Helvetica,sans-Serif" font-size="11.00">Patient</text>
<text text-anchor="middle" x="62" y="-27.55" font-family="Helvetica,sans-Serif" font-size="11.00">Resource Store</text>
</g>
<!-- re&#45;&gt;pr -->
<g id="edge5" class="edge">
<title>re&#45;&gt;pr</title>
<path fill="none" stroke="black" stroke-dasharray="1,5" d="M146.49,-96.6C133.26,-87.59 116.81,-76.37 101.95,-66.24"/>
<polygon fill="black" stroke="black" points="103.94,-63.36 93.71,-60.62 100,-69.15 103.94,-63.36"/>
</g>
<!-- er -->
<g id="node6" class="node">
<title>er</title>
<path fill="#ffffff" stroke="#e65100" d="M217.88,-56C217.88,-58.21 197.31,-60 172,-60 146.69,-60 126.12,-58.21 126.12,-56 126.12,-56 126.12,-20 126.12,-20 126.12,-17.79 146.69,-16 172,-16 197.31,-16 217.88,-17.79 217.88,-20 217.88,-20 217.88,-56 217.88,-56"/>
<path fill="none" stroke="#e65100" d="M217.88,-56C217.88,-53.79 197.31,-52 172,-52 146.69,-52 126.12,-53.79 126.12,-56"/>
<text text-anchor="middle" x="172" y="-39.55" font-family="Helvetica,sans-Serif" font-size="11.00">Encounter</text>
<text text-anchor="middle" x="172" y="-27.55" font-family="Helvetica,sans-Serif" font-size="11.00">Resource Store</text>
</g>
<!-- re&#45;&gt;er -->
<g id="edge6" class="edge">
<title>re&#45;&gt;er</title>
<path fill="none" stroke="black" stroke-dasharray="1,5" d="M172,-96.6C172,-89.17 172,-80.23 172,-71.64"/>
<polygon fill="black" stroke="black" points="175.5,-71.83 172,-61.83 168.5,-71.83 175.5,-71.83"/>
</g>
<!-- ar -->
<g id="node7" class="node">
<title>ar</title>
<path fill="#ffffff" stroke="#e65100" d="M327.88,-56C327.88,-58.21 307.31,-60 282,-60 256.69,-60 236.12,-58.21 236.12,-56 236.12,-56 236.12,-20 236.12,-20 236.12,-17.79 256.69,-16 282,-16 307.31,-16 327.88,-17.79 327.88,-20 327.88,-20 327.88,-56 327.88,-56"/>
<path fill="none" stroke="#e65100" d="M327.88,-56C327.88,-53.79 307.31,-52 282,-52 256.69,-52 236.12,-53.79 236.12,-56"/>
<text text-anchor="middle" x="282" y="-39.55" font-family="Helvetica,sans-Serif" font-size="11.00">Appointment</text>
<text text-anchor="middle" x="282" y="-27.55" font-family="Helvetica,sans-Serif" font-size="11.00">Resource Store</text>
</g>
<!-- re&#45;&gt;ar -->
<g id="edge7" class="edge">
<title>re&#45;&gt;ar</title>
<path fill="none" stroke="black" stroke-dasharray="1,5" d="M197.51,-96.6C210.74,-87.59 227.19,-76.37 242.05,-66.24"/>
<polygon fill="black" stroke="black" points="244,-69.15 250.29,-60.62 240.06,-63.36 244,-69.15"/>
</g>
</g>
</svg>
