<?xml version="1.0" encoding="UTF-8" standalone="no"?>
<!DOCTYPE svg PUBLIC "-//W3C//DTD SVG 1.1//EN"
 "http://www.w3.org/Graphics/SVG/1.1/DTD/svg11.dtd">
<!-- Generated by graphviz version 12.2.1 (20241206.2353)
 -->
<!-- Title: crud Pages: 1 -->
<svg width="622pt" height="385pt"
 viewBox="0.00 0.00 622.00 384.50" xmlns="http://www.w3.org/2000/svg" xmlns:xlink="http://www.w3.org/1999/xlink">
<g id="graph0" class="graph" transform="scale(1 1) rotate(0) translate(4 380.5)">
<title>crud</title>
<polygon fill="white" stroke="none" points="-4,4 -4,-380.5 618,-380.5 618,4 -4,4"/>
<g id="clust1" class="cluster">
<title>cluster_create</title>
<polygon fill="#e8f5e9" stroke="#2e7d32" points="8,-8 8,-368.5 140,-368.5 140,-8 8,-8"/>
<text text-anchor="middle" x="74" y="-353.1" font-family="Helvetica,sans-Serif" font-weight="bold" font-size="12.00">CREATE</text>
</g>
<g id="clust2" class="cluster">
<title>cluster_read</title>
<polygon fill="#e3f2fd" stroke="#0d47a1" points="148,-120.25 148,-368.5 276,-368.5 276,-120.25 148,-120.25"/>
<text text-anchor="middle" x="212" y="-353.1" font-family="Helvetica,sans-Serif" font-weight="bold" font-size="12.00">READ / SEARCH</text>
</g>
<g id="clust3" class="cluster">
<title>cluster_update</title>
<polygon fill="#fff3e0" stroke="#e65100" points="284,-8 284,-368.5 390,-368.5 390,-8 284,-8"/>
<text text-anchor="middle" x="337" y="-353.1" font-family="Helvetica,sans-Serif" font-weight="bold" font-size="12.00">UPDATE</text>
</g>
<g id="clust4" class="cluster">
<title>cluster_delete</title>
<polygon fill="#ffebee" stroke="#c62828" points="398,-8 398,-368.5 606,-368.5 606,-8 398,-8"/>
<text text-anchor="middle" x="502" y="-353.1" font-family="Helvetica,sans-Serif" font-weight="bold" font-size="12.00">DELETE</text>
</g>
<!-- c1 -->
<g id="node1" class="node">
<title>c1</title>
<polygon fill="#ffffff" stroke="black" points="101.88,-339.75 46.12,-339.75 46.12,-303.75 101.88,-303.75 101.88,-339.75"/>
<text text-anchor="middle" x="74" y="-323.5" font-family="Helvetica,sans-Serif" font-size="10.00">Fill Form</text>
<text text-anchor="middle" x="74" y="-312.25" font-family="Helvetica,sans-Serif" font-size="10.00">+ Submit</text>
</g>
<!-- c2 -->
<g id="node2" class="node">
<title>c2</title>
<polygon fill="#e8f5f4" stroke="#43b3ae" points="131.5,-263.88 16.5,-263.88 16.5,-227.88 131.5,-227.88 131.5,-263.88"/>
<text text-anchor="middle" x="74" y="-247.62" font-family="Helvetica,sans-Serif" font-size="10.00">validateForm()</text>
<text text-anchor="middle" x="74" y="-236.38" font-family="Helvetica,sans-Serif" font-size="10.00">buildPatientResource()</text>
</g>
<!-- c1&#45;&gt;c2 -->
<g id="edge1" class="edge">
<title>c1&#45;&gt;c2</title>
<path fill="none" stroke="black" d="M74,-303.62C74,-295.28 74,-285.04 74,-275.57"/>
<polygon fill="black" stroke="black" points="77.5,-275.69 74,-265.69 70.5,-275.69 77.5,-275.69"/>
</g>
<!-- c3 -->
<g id="node3" class="node">
<title>c3</title>
<polygon fill="#fff3e0" stroke="#e65100" points="113.88,-164.25 34.12,-164.25 34.12,-128.25 113.88,-128.25 113.88,-164.25"/>
<text text-anchor="middle" x="74" y="-148" font-family="Helvetica,sans-Serif" font-size="10.00">POST /Patient</text>
<text text-anchor="middle" x="74" y="-136.75" font-family="Helvetica,sans-Serif" font-size="10.00">(JSON body)</text>
</g>
<!-- c2&#45;&gt;c3 -->
<g id="edge2" class="edge">
<title>c2&#45;&gt;c3</title>
<path fill="none" stroke="black" d="M74,-227.42C74,-213.12 74,-192.6 74,-175.9"/>
<polygon fill="black" stroke="black" points="77.5,-176.07 74,-166.07 70.5,-176.07 77.5,-176.07"/>
</g>
<!-- c4 -->
<g id="node4" class="node">
<title>c4</title>
<polygon fill="#e8f5e9" stroke="#2e7d32" points="108.62,-52 39.38,-52 39.38,-16 108.62,-16 108.62,-52"/>
<text text-anchor="middle" x="74" y="-35.75" font-family="Helvetica,sans-Serif" font-size="10.00">201 Created</text>
<text text-anchor="middle" x="74" y="-24.5" font-family="Helvetica,sans-Serif" font-size="10.00">+ Patient ID</text>
</g>
<!-- c3&#45;&gt;c4 -->
<g id="edge3" class="edge">
<title>c3&#45;&gt;c4</title>
<path fill="none" stroke="black" d="M74,-128.02C74,-110.89 74,-84.29 74,-63.92"/>
<polygon fill="black" stroke="black" points="77.5,-63.98 74,-53.98 70.5,-63.98 77.5,-63.98"/>
</g>
<!-- r1 -->
<g id="node5" class="node">
<title>r1</title>
<polygon fill="#ffffff" stroke="black" points="243.25,-339.75 180.75,-339.75 180.75,-303.75 243.25,-303.75 243.25,-339.75"/>
<text text-anchor="middle" x="212" y="-323.5" font-family="Helvetica,sans-Serif" font-size="10.00">Browse All</text>
<text text-anchor="middle" x="212" y="-312.25" font-family="Helvetica,sans-Serif" font-size="10.00">or Search</text>
</g>
<!-- r2 -->
<g id="node6" class="node">
<title>r2</title>
<polygon fill="#fff3e0" stroke="#e65100" points="267.62,-266.75 156.38,-266.75 156.38,-225 267.62,-225 267.62,-266.75"/>
<text text-anchor="middle" x="212" y="-253.25" font-family="Helvetica,sans-Serif" font-size="10.00">GET /Patient?</text>
<text text-anchor="middle" x="212" y="-242" font-family="Helvetica,sans-Serif" font-size="10.00">_count=50&amp;_offset=0</text>
<text text-anchor="middle" x="212" y="-230.75" font-family="Helvetica,sans-Serif" font-size="10.00">&amp;_sort=&#45;_lastUpdated</text>
</g>
<!-- r1&#45;&gt;r2 -->
<g id="edge4" class="edge">
<title>r1&#45;&gt;r2</title>
<path fill="none" stroke="black" d="M212,-303.62C212,-296.11 212,-287.07 212,-278.42"/>
<polygon fill="black" stroke="black" points="215.5,-278.58 212,-268.58 208.5,-278.58 215.5,-278.58"/>
</g>
<!-- r3 -->
<g id="node7" class="node">
<title>r3</title>
<polygon fill="#e3f2fd" stroke="#0d47a1" points="253,-164.25 171,-164.25 171,-128.25 253,-128.25 253,-164.25"/>
<text text-anchor="middle" x="212" y="-148" font-family="Helvetica,sans-Serif" font-size="10.00">Bundle</text>
<text text-anchor="middle" x="212" y="-136.75" font-family="Helvetica,sans-Serif" font-size="10.00">{entries[], total}</text>
</g>
<!-- r2&#45;&gt;r3 -->
<g id="edge5" class="edge">
<title>r2&#45;&gt;r3</title>
<path fill="none" stroke="black" d="M212,-224.65C212,-210.49 212,-191.39 212,-175.71"/>
<polygon fill="black" stroke="black" points="215.5,-176.03 212,-166.03 208.5,-176.03 215.5,-176.03"/>
</g>
<!-- u1 -->
<g id="node8" class="node">
<title>u1</title>
<polygon fill="#ffffff" stroke="black" points="378,-339.75 296,-339.75 296,-303.75 378,-303.75 378,-339.75"/>
<text text-anchor="middle" x="337" y="-323.5" font-family="Helvetica,sans-Serif" font-size="10.00">Select Patient</text>
<text text-anchor="middle" x="337" y="-312.25" font-family="Helvetica,sans-Serif" font-size="10.00">+ Click Update</text>
</g>
<!-- u2 -->
<g id="node9" class="node">
<title>u2</title>
<polygon fill="#fff3e0" stroke="#e65100" points="381.75,-263.88 292.25,-263.88 292.25,-227.88 381.75,-227.88 381.75,-263.88"/>
<text text-anchor="middle" x="337" y="-247.62" font-family="Helvetica,sans-Serif" font-size="10.00">GET /Patient/{id}</text>
<text text-anchor="middle" x="337" y="-236.38" font-family="Helvetica,sans-Serif" font-size="10.00">(pre&#45;fill form)</text>
</g>
<!-- u1&#45;&gt;u2 -->
<g id="edge6" class="edge">
<title>u1&#45;&gt;u2</title>
<path fill="none" stroke="black" d="M337,-303.62C337,-295.28 337,-285.04 337,-275.57"/>
<polygon fill="black" stroke="black" points="340.5,-275.69 337,-265.69 333.5,-275.69 340.5,-275.69"/>
</g>
<!-- u3 -->
<g id="node10" class="node">
<title>u3</title>
<polygon fill="#fff3e0" stroke="#e65100" points="381.75,-164.25 292.25,-164.25 292.25,-128.25 381.75,-128.25 381.75,-164.25"/>
<text text-anchor="middle" x="337" y="-148" font-family="Helvetica,sans-Serif" font-size="10.00">Edit + Submit</text>
<text text-anchor="middle" x="337" y="-136.75" font-family="Helvetica,sans-Serif" font-size="10.00">PUT /Patient/{id}</text>
</g>
<!-- u2&#45;&gt;u3 -->
<g id="edge7" class="edge">
<title>u2&#45;&gt;u3</title>
<path fill="none" stroke="black" d="M337,-227.42C337,-213.12 337,-192.6 337,-175.9"/>
<polygon fill="black" stroke="black" points="340.5,-176.07 337,-166.07 333.5,-176.07 340.5,-176.07"/>
</g>
<!-- u4 -->
<g id="node11" class="node">
<title>u4</title>
<polygon fill="#fff3e0" stroke="#e65100" points="364,-52 310,-52 310,-16 364,-16 364,-52"/>
<text text-anchor="middle" x="337" y="-35.75" font-family="Helvetica,sans-Serif" font-size="10.00">200 OK</text>
<text text-anchor="middle" x="337" y="-24.5" font-family="Helvetica,sans-Serif" font-size="10.00">Updated</text>
</g>
<!-- u3&#45;&gt;u4 -->
<g id="edge8" class="edge">
<title>u3&#45;&gt;u4</title>
<path fill="none" stroke="black" d="M337,-128.02C337,-110.89 337,-84.29 337,-63.92"/>
<polygon fill="black" stroke="black" points="340.5,-63.98 337,-53.98 333.5,-63.98 340.5,-63.98"/>
</g>
<!-- d1 -->
<g id="node12" class="node">
<title>d1</title>
<polygon fill="#ffffff" stroke="black" points="544.12,-339.75 459.88,-339.75 459.88,-303.75 544.12,-303.75 544.12,-339.75"/>
<text text-anchor="middle" x="502" y="-323.5" font-family="Helvetica,sans-Serif" font-size="10.00">Select + Delete</text>
<text text-anchor="middle" x="502" y="-312.25" font-family="Helvetica,sans-Serif" font-size="10.00">Confirm Modal</text>
</g>
<!-- d2 -->
<g id="node13" class="node">
<title>d2</title>
<polygon fill="#fff3e0" stroke="#e65100" points="556.12,-263.88 447.88,-263.88 447.88,-227.88 556.12,-227.88 556.12,-263.88"/>
<text text-anchor="middle" x="502" y="-242" font-family="Helvetica,sans-Serif" font-size="10.00">DELETE /Patient/{id}</text>
</g>
<!-- d1&#45;&gt;d2 -->
<g id="edge9" class="edge">
<title>d1&#45;&gt;d2</title>
<path fill="none" stroke="black" d="M502,-303.62C502,-295.28 502,-285.04 502,-275.57"/>
<polygon fill="black" stroke="black" points="505.5,-275.69 502,-265.69 498.5,-275.69 505.5,-275.69"/>
</g>
<!-- d3 -->
<g id="node14" class="node">
<title>d3</title>
<polygon fill="#ffebee" stroke="#c62828" points="502,-188 406.5,-146.25 502,-104.5 597.5,-146.25 502,-188"/>
<text text-anchor="middle" x="502" y="-153.62" font-family="Helvetica,sans-Serif" font-size="10.00">409 Conflict?</text>
<text text-anchor="middle" x="502" y="-142.38" font-family="Helvetica,sans-Serif" font-size="10.00">Retry with</text>
<text text-anchor="middle" x="502" y="-131.12" font-family="Helvetica,sans-Serif" font-size="10.00">?_cascade=delete</text>
</g>
<!-- d2&#45;&gt;d3 -->
<g id="edge10" class="edge">
<title>d2&#45;&gt;d3</title>
<path fill="none" stroke="black" d="M502,-227.42C502,-219.53 502,-209.75 502,-199.75"/>
<polygon fill="black" stroke="black" points="505.5,-199.99 502,-189.99 498.5,-199.99 505.5,-199.99"/>
</g>
<!-- d4 -->
<g id="node15" class="node">
<title>d4</title>
<polygon fill="#ffebee" stroke="#c62828" points="531.5,-52 446.5,-52 446.5,-16 531.5,-16 531.5,-52"/>
<text text-anchor="middle" x="489" y="-30.12" font-family="Helvetica,sans-Serif" font-size="10.00">204 No Content</text>
</g>
<!-- d3&#45;&gt;d4 -->
<g id="edge11" class="edge">
<title>d3&#45;&gt;d4</title>
<path fill="none" stroke="black" d="M464.65,-120.7C453.73,-111.42 443.15,-99.82 437.25,-86.5 434.28,-79.79 433.81,-76.48 437.25,-70 439.22,-66.28 441.78,-62.89 444.71,-59.81"/>
<polygon fill="black" stroke="black" points="446.84,-62.6 452.03,-53.36 442.21,-57.35 446.84,-62.6"/>
<text text-anchor="middle" x="472.12" y="-73.2" font-family="Times,serif" font-size="14.00">Yes: cascade</text>
</g>
<!-- d3&#45;&gt;d4 -->
<g id="edge12" class="edge">
<title>d3&#45;&gt;d4</title>
<path fill="none" stroke="black" stroke-dasharray="5,2" d="M508.95,-107.36C509.99,-95.29 509.9,-81.96 507,-70 506.4,-67.52 505.59,-65.01 504.65,-62.55"/>
<polygon fill="black" stroke="black" points="507.86,-61.17 500.51,-53.54 501.5,-64.09 507.86,-61.17"/>
<text text-anchor="middle" x="536.7" y="-73.2" font-family="Times,serif" font-size="14.00">No: direct</text>
</g>
</g>
</svg>
