<?xml version="1.0" encoding="UTF-8" standalone="no"?>
<!DOCTYPE svg PUBLIC "-//W3C//DTD SVG 1.1//EN"
 "http://www.w3.org/Graphics/SVG/1.1/DTD/svg11.dtd">
<!-- Generated by graphviz version 12.2.1 (20241206.2353)
 -->
<!-- Title: erd Pages: 1 -->
<svg width="2419pt" height="116pt"
 viewBox="0.00 0.00 2418.75 115.50" xmlns="http://www.w3.org/2000/svg" xmlns:xlink="http://www.w3.org/1999/xlink">
<g id="graph0" class="graph" transform="scale(1 1) rotate(0) translate(4 111.5)">
<title>erd</title>
<polygon fill="white" stroke="none" points="-4,4 -4,-111.5 2414.75,-111.5 2414.75,4 -4,4"/>
<!-- patient -->
<g id="node1" class="node">
<title>patient</title>
<polygon fill="#ffffff" stroke="#43b3ae" points="0,-28.5 0,-64.5 836,-64.5 836,-28.5 0,-28.5"/>
<text text-anchor="middle" x="29" y="-43.5" font-family="Courier,monospace" font-size="10.00">Patient</text>
<polyline fill="none" stroke="#43b3ae" points="58,-28.75 58,-64.5"/>
<text text-anchor="start" x="66" y="-43.5" font-family="Courier,monospace" font-size="10.00">id : string (PK)</text>
<polyline fill="none" stroke="#43b3ae" points="170,-28.75 170,-64.5"/>
<text text-anchor="start" x="178" y="-43.5" font-family="Courier,monospace" font-size="10.00">name : HumanName</text>
<polyline fill="none" stroke="#43b3ae" points="282,-28.75 282,-64.5"/>
<text text-anchor="start" x="290" y="-43.5" font-family="Courier,monospace" font-size="10.00">gender : code</text>
<polyline fill="none" stroke="#43b3ae" points="376,-28.75 376,-64.5"/>
<text text-anchor="start" x="384" y="-43.5" font-family="Courier,monospace" font-size="10.00">birthDate : date</text>
<polyline fill="none" stroke="#43b3ae" points="488,-28.75 488,-64.5"/>
<text text-anchor="start" x="496" y="-43.5" font-family="Courier,monospace" font-size="10.00">telecom : ContactPoint</text>
<polyline fill="none" stroke="#43b3ae" points="636,-28.75 636,-64.5"/>
<text text-anchor="start" x="644" y="-43.5" font-family="Courier,monospace" font-size="10.00">address : Address</text>
<polyline fill="none" stroke="#43b3ae" points="754,-28.75 754,-64.5"/>
<text text-anchor="start" x="762" y="-43.5" font-family="Courier,monospace" font-size="10.00">meta : Meta</text>
</g>
<!-- encounter -->
<g id="node2" class="node">
<title>encounter</title>
<polygon fill="#ffffff" stroke="#e65100" points="944.75,-56.5 944.75,-92.5 1794.75,-92.5 1794.75,-56.5 944.75,-56.5"/>
<text text-anchor="middle" x="979.75" y="-71.5" font-family="Courier,monospace" font-size="10.00">Encounter</text>
<polyline fill="none" stroke="#e65100" points="1014.75,-56.75 1014.75,-92.5"/>
<text text-anchor="start" x="1022.75" y="-71.5" font-family="Courier,monospace" font-size="10.00">id : string (PK)</text>
<polyline fill="none" stroke="#e65100" points="1126.75,-56.75 1126.75,-92.5"/>
<text text-anchor="start" x="1134.75" y="-71.5" font-family="Courier,monospace" font-size="10.00">status : code</text>
<polyline fill="none" stroke="#e65100" points="1220.75,-56.75 1220.75,-92.5"/>
<text text-anchor="start" x="1228.75" y="-71.5" font-family="Courier,monospace" font-size="10.00">class : Coding</text>
<polyline fill="none" stroke="#e65100" points="1320.75,-56.75 1320.75,-92.5"/>
<text text-anchor="start" x="1328.75" y="-71.5" font-family="Courier,monospace" font-size="10.00">reasonCode : CodeableConcept</text>
<polyline fill="none" stroke="#e65100" points="1504.75,-56.75 1504.75,-92.5"/>
<text text-anchor="start" x="1512.75" y="-71.5" font-family="Courier,monospace" font-size="10.00">period : Period</text>
<polyline fill="none" stroke="#e65100" points="1610.75,-56.75 1610.75,-92.5"/>
<text text-anchor="start" x="1618.75" y="-71.5" font-family="Courier,monospace" font-size="10.00">subject : Reference(Patient)</text>
</g>
<!-- patient&#45;&gt;encounter -->
<g id="edge1" class="edge">
<title>patient&#45;&gt;encounter</title>
<path fill="none" stroke="#e65100" stroke-width="2" d="M836.27,-58.8C867.92,-59.73 899.93,-60.68 931.7,-61.62"/>
<polygon fill="#e65100" stroke="#e65100" stroke-width="2" points="931.22,-65.1 941.32,-61.9 931.42,-58.11 931.22,-65.1"/>
<text text-anchor="middle" x="890.38" y="-81.04" font-family="Times,serif" font-size="14.00"> &#160;subject &#160;</text>
<text text-anchor="middle" x="890.38" y="-64.54" font-family="Times,serif" font-size="14.00"> &#160;1..* </text>
</g>
<!-- appointment -->
<g id="node3" class="node">
<title>appointment</title>
<polygon fill="#ffffff" stroke="#0d47a1" points="1065.75,-0.5 1065.75,-36.5 1673.75,-36.5 1673.75,-0.5 1065.75,-0.5"/>
<text text-anchor="middle" x="1106.75" y="-15.5" font-family="Courier,monospace" font-size="10.00">Appointment</text>
<polyline fill="none" stroke="#0d47a1" points="1147.75,-0.75 1147.75,-36.5"/>
<text text-anchor="start" x="1155.75" y="-15.5" font-family="Courier,monospace" font-size="10.00">id : string (PK)</text>
<polyline fill="none" stroke="#0d47a1" points="1259.75,-0.75 1259.75,-36.5"/>
<text text-anchor="start" x="1267.75" y="-15.5" font-family="Courier,monospace" font-size="10.00">status : code</text>
<polyline fill="none" stroke="#0d47a1" points="1353.75,-0.75 1353.75,-36.5"/>
<text text-anchor="start" x="1361.75" y="-15.5" font-family="Courier,monospace" font-size="10.00">start : dateTime</text>
<polyline fill="none" stroke="#0d47a1" points="1465.75,-0.75 1465.75,-36.5"/>
<text text-anchor="start" x="1473.75" y="-15.5" font-family="Courier,monospace" font-size="10.00">participant : Reference(Patient)</text>
</g>
<!-- patient&#45;&gt;appointment -->
<g id="edge2" class="edge">
<title>patient&#45;&gt;appointment</title>
<path fill="none" stroke="#0d47a1" stroke-width="2" d="M720.5,-28.01C765.24,-25.81 810.81,-23.86 854,-22.5 918.3,-20.48 987.14,-19.28 1052.88,-18.59"/>
<polygon fill="#0d47a1" stroke="#0d47a1" stroke-width="2" points="1052.56,-22.1 1062.53,-18.5 1052.49,-15.1 1052.56,-22.1"/>
<text text-anchor="middle" x="890.38" y="-42.2" font-family="Times,serif" font-size="14.00"> &#160;participant &#160;</text>
<text text-anchor="middle" x="890.38" y="-25.7" font-family="Times,serif" font-size="14.00"> &#160;0..* </text>
</g>
<!-- condition -->
<g id="node4" class="node">
<title>condition</title>
<polygon fill="#ffffff" stroke="#495057" points="1896.75,-56.5 1896.75,-92.5 2410.75,-92.5 2410.75,-56.5 1896.75,-56.5"/>
<text text-anchor="middle" x="1931.75" y="-71.5" font-family="Courier,monospace" font-size="10.00">Condition</text>
<polyline fill="none" stroke="#495057" points="1966.75,-56.75 1966.75,-92.5"/>
<text text-anchor="start" x="1974.75" y="-71.5" font-family="Courier,monospace" font-size="10.00">id : string (PK)</text>
<polyline fill="none" stroke="#495057" points="2078.75,-56.75 2078.75,-92.5"/>
<text text-anchor="start" x="2086.75" y="-71.5" font-family="Courier,monospace" font-size="10.00">code : CodeableConcept</text>
<polyline fill="none" stroke="#495057" points="2226.75,-56.75 2226.75,-92.5"/>
<text text-anchor="start" x="2234.75" y="-71.5" font-family="Courier,monospace" font-size="10.00">subject : Reference(Patient)</text>
</g>
<!-- encounter&#45;&gt;condition -->
<g id="edge3" class="edge">
<title>encounter&#45;&gt;condition</title>
<path fill="none" stroke="#495057" stroke-dasharray="5,2" d="M1795.22,-74.5C1825.77,-74.5 1856.04,-74.5 1885.28,-74.5"/>
<polygon fill="#495057" stroke="#495057" points="1884.93,-78 1894.93,-74.5 1884.93,-71 1884.93,-78"/>
<text text-anchor="middle" x="1845.75" y="-94.2" font-family="Times,serif" font-size="14.00"> &#160;diagnosis &#160;</text>
<text text-anchor="middle" x="1845.75" y="-77.7" font-family="Times,serif" font-size="14.00"> &#160;0..1 </text>
</g>
</g>
</svg>
