<?xml version="1.0" encoding="UTF-8" standalone="no"?>
<!DOCTYPE svg PUBLIC "-//W3C//DTD SVG 1.1//EN"
 "http://www.w3.org/Graphics/SVG/1.1/DTD/svg11.dtd">
<!-- Generated by graphviz version 12.2.1 (20241206.2353)
 -->
<!-- Title: lazy Pages: 1 -->
<svg width="904pt" height="152pt"
 viewBox="0.00 0.00 903.75 152.00" xmlns="http://www.w3.org/2000/svg" xmlns:xlink="http://www.w3.org/1999/xlink">
<g id="graph0" class="graph" transform="scale(1 1) rotate(0) translate(4 148)">
<title>lazy</title>
<polygon fill="white" stroke="none" points="-4,4 -4,-148 899.75,-148 899.75,4 -4,4"/>
<!-- table -->
<g id="node1" class="node">
<title>table</title>
<polygon fill="#e8f5f4" stroke="#43b3ae" points="88.75,-90 0,-90 0,-54 88.75,-54 88.75,-90"/>
<text text-anchor="middle" x="44.38" y="-73.75" font-family="Helvetica,sans-Serif" font-size="10.00">Table Renders</text>
<text text-anchor="middle" x="44.38" y="-62.5" font-family="Helvetica,sans-Serif" font-size="10.00">50 Patient Rows</text>
</g>
<!-- placeholder -->
<g id="node2" class="node">
<title>placeholder</title>
<polygon fill="#fff9c4" stroke="#f9a825" points="217.25,-90 124.75,-90 124.75,-54 217.25,-54 217.25,-90"/>
<text text-anchor="middle" x="171" y="-73.75" font-family="Helvetica,sans-Serif" font-size="10.00">Placeholder Cells</text>
<text text-anchor="middle" x="171" y="-62.5" font-family="Helvetica,sans-Serif" font-size="10.00">&quot;Loading...&quot;</text>
</g>
<!-- table&#45;&gt;placeholder -->
<g id="edge1" class="edge">
<title>table&#45;&gt;placeholder</title>
<path fill="none" stroke="black" d="M88.96,-72C96.79,-72 105.05,-72 113.18,-72"/>
<polygon fill="black" stroke="black" points="113.02,-75.5 123.02,-72 113.02,-68.5 113.02,-75.5"/>
</g>
<!-- queue -->
<g id="node3" class="node">
<title>queue</title>
<polygon fill="#fff3e0" stroke="#e65100" points="372.75,-102.5 253.25,-72 372.75,-41.5 492.25,-72 372.75,-102.5"/>
<text text-anchor="middle" x="372.75" y="-73.75" font-family="Helvetica,sans-Serif" font-size="10.00">Throttled Worker Queue</text>
<text text-anchor="middle" x="372.75" y="-62.5" font-family="Helvetica,sans-Serif" font-size="10.00">(6 concurrent max)</text>
</g>
<!-- placeholder&#45;&gt;queue -->
<g id="edge2" class="edge">
<title>placeholder&#45;&gt;queue</title>
<path fill="none" stroke="black" d="M217.58,-72C224.62,-72 232.18,-72 240.04,-72"/>
<polygon fill="black" stroke="black" points="239.8,-75.5 249.8,-72 239.8,-68.5 239.8,-75.5"/>
</g>
<!-- enc1 -->
<g id="node4" class="node">
<title>enc1</title>
<polygon fill="#ffffff" stroke="#495057" points="620.75,-144 528.25,-144 528.25,-108 620.75,-108 620.75,-144"/>
<text text-anchor="middle" x="574.5" y="-127.75" font-family="Helvetica,sans-Serif" font-size="10.00">GET /Encounter?</text>
<text text-anchor="middle" x="574.5" y="-116.5" font-family="Helvetica,sans-Serif" font-size="10.00">subject=Patient/1</text>
</g>
<!-- queue&#45;&gt;enc1 -->
<g id="edge3" class="edge">
<title>queue&#45;&gt;enc1</title>
<path fill="none" stroke="black" d="M432.06,-87.76C458.76,-94.98 490.29,-103.51 516.79,-110.67"/>
<polygon fill="black" stroke="black" points="515.79,-114.02 526.35,-113.25 517.61,-107.27 515.79,-114.02"/>
</g>
<!-- enc2 -->
<g id="node5" class="node">
<title>enc2</title>
<polygon fill="#ffffff" stroke="#495057" points="620.75,-90 528.25,-90 528.25,-54 620.75,-54 620.75,-90"/>
<text text-anchor="middle" x="574.5" y="-73.75" font-family="Helvetica,sans-Serif" font-size="10.00">GET /Encounter?</text>
<text text-anchor="middle" x="574.5" y="-62.5" font-family="Helvetica,sans-Serif" font-size="10.00">subject=Patient/2</text>
</g>
<!-- queue&#45;&gt;enc2 -->
<g id="edge4" class="edge">
<title>queue&#45;&gt;enc2</title>
<path fill="none" stroke="black" d="M494.27,-72C501.96,-72 509.48,-72 516.64,-72"/>
<polygon fill="black" stroke="black" points="516.42,-75.5 526.42,-72 516.42,-68.5 516.42,-75.5"/>
</g>
<!-- enc3 -->
<g id="node6" class="node">
<title>enc3</title>
<polygon fill="#ffffff" stroke="#495057" points="604.62,-36 544.38,-36 544.38,0 604.62,0 604.62,-36"/>
<text text-anchor="middle" x="574.5" y="-19.75" font-family="Helvetica,sans-Serif" font-size="10.00">... up to</text>
<text text-anchor="middle" x="574.5" y="-8.5" font-family="Helvetica,sans-Serif" font-size="10.00">Patient/50</text>
</g>
<!-- queue&#45;&gt;enc3 -->
<g id="edge5" class="edge">
<title>queue&#45;&gt;enc3</title>
<path fill="none" stroke="black" d="M432.06,-56.24C464.49,-47.47 504.04,-36.78 533.06,-28.93"/>
<polygon fill="black" stroke="black" points="533.82,-32.35 542.56,-26.36 531.99,-25.6 533.82,-32.35"/>
</g>
<!-- cache -->
<g id="node7" class="node">
<title>cache</title>
<path fill="#e8f5f4" stroke="#43b3ae" d="M760.5,-89.16C760.5,-91.26 737.25,-92.97 708.62,-92.97 680,-92.97 656.75,-91.26 656.75,-89.16 656.75,-89.16 656.75,-54.84 656.75,-54.84 656.75,-52.74 680,-51.03 708.62,-51.03 737.25,-51.03 760.5,-52.74 760.5,-54.84 760.5,-54.84 760.5,-89.16 760.5,-89.16"/>
<path fill="none" stroke="#43b3ae" d="M760.5,-89.16C760.5,-87.05 737.25,-85.34 708.62,-85.34 680,-85.34 656.75,-87.05 656.75,-89.16"/>
<text text-anchor="middle" x="708.62" y="-73.75" font-family="Helvetica,sans-Serif" font-size="10.00">encounterCache{}</text>
<text text-anchor="middle" x="708.62" y="-62.5" font-family="Helvetica,sans-Serif" font-size="10.00">appointmentCache{}</text>
</g>
<!-- enc1&#45;&gt;cache -->
<g id="edge6" class="edge">
<title>enc1&#45;&gt;cache</title>
<path fill="none" stroke="black" d="M620.6,-107.57C629.62,-103.88 639.21,-99.96 648.62,-96.12"/>
<polygon fill="black" stroke="black" points="649.78,-99.42 657.71,-92.4 647.13,-92.94 649.78,-99.42"/>
</g>
<!-- enc2&#45;&gt;cache -->
<g id="edge7" class="edge">
<title>enc2&#45;&gt;cache</title>
<path fill="none" stroke="black" d="M620.97,-72C628.78,-72 637.02,-72 645.19,-72"/>
<polygon fill="black" stroke="black" points="645.12,-75.5 655.12,-72 645.12,-68.5 645.12,-75.5"/>
</g>
<!-- enc3&#45;&gt;cache -->
<g id="edge8" class="edge">
<title>enc3&#45;&gt;cache</title>
<path fill="none" stroke="black" d="M604.82,-29.98C617.73,-35.26 633.39,-41.66 648.55,-47.85"/>
<polygon fill="black" stroke="black" points="646.94,-50.98 657.52,-51.52 649.59,-44.5 646.94,-50.98"/>
</g>
<!-- update -->
<g id="node8" class="node">
<title>update</title>
<polygon fill="#e8f5e9" stroke="#2e7d32" points="895.75,-90 796.5,-90 796.5,-54 895.75,-54 895.75,-90"/>
<text text-anchor="middle" x="846.12" y="-73.75" font-family="Helvetica,sans-Serif" font-size="10.00">Update Table Cells</text>
<text text-anchor="middle" x="846.12" y="-62.5" font-family="Helvetica,sans-Serif" font-size="10.00">with Actual Data</text>
</g>
<!-- cache&#45;&gt;update -->
<g id="edge9" class="edge">
<title>cache&#45;&gt;update</title>
<path fill="none" stroke="black" d="M760.85,-72C768.61,-72 776.67,-72 784.6,-72"/>
<polygon fill="black" stroke="black" points="784.55,-75.5 794.55,-72 784.55,-68.5 784.55,-75.5"/>
</g>
</g>
</svg>
