<?xml version="1.0" encoding="UTF-8" standalone="no"?>
<!DOCTYPE svg PUBLIC "-//W3C//DTD SVG 1.1//EN"
 "http://www.w3.org/Graphics/SVG/1.1/DTD/svg11.dtd">
<!-- Generated by graphviz version 12.2.1 (20241206.2353)
 -->
<!-- Title: spa Pages: 1 -->
<svg width="347pt" height="404pt"
 viewBox="0.00 0.00 347.39 403.65" xmlns="http://www.w3.org/2000/svg" xmlns:xlink="http://www.w3.org/1999/xlink">
<g id="graph0" class="graph" transform="scale(1 1) rotate(0) translate(4 399.65)">
<title>spa</title>
<polygon fill="white" stroke="none" points="-4,4 -4,-399.65 343.39,-399.65 343.39,4 -4,4"/>
<!-- start -->
<g id="node1" class="node">
<title>start</title>
<ellipse fill="black" stroke="black" cx="157.5" cy="-388.45" rx="7.2" ry="7.2"/>
</g>
<!-- home -->
<g id="node2" class="node">
<title>home</title>
<path fill="#e8f5f4" stroke="#43b3ae" d="M185.75,-344.25C185.75,-344.25 129.25,-344.25 129.25,-344.25 123.25,-344.25 117.25,-338.25 117.25,-332.25 117.25,-332.25 117.25,-280 117.25,-280 117.25,-274 123.25,-268 129.25,-268 129.25,-268 185.75,-268 185.75,-268 191.75,-268 197.75,-274 197.75,-280 197.75,-280 197.75,-332.25 197.75,-332.25 197.75,-338.25 191.75,-344.25 185.75,-344.25"/>
<text text-anchor="middle" x="157.5" y="-330.75" font-family="Helvetica,sans-Serif" font-size="10.00">HOME</text>
<text text-anchor="middle" x="157.5" y="-307.5" font-family="Helvetica,sans-Serif" font-size="10.00">Hero Banner</text>
<text text-anchor="middle" x="157.5" y="-296.25" font-family="Helvetica,sans-Serif" font-size="10.00">Metric Cards</text>
<text text-anchor="middle" x="157.5" y="-285" font-family="Helvetica,sans-Serif" font-size="10.00">Action Buttons</text>
<text text-anchor="middle" x="157.5" y="-273.75" font-family="Helvetica,sans-Serif" font-size="10.00">Search Bar</text>
</g>
<!-- start&#45;&gt;home -->
<g id="edge1" class="edge">
<title>start&#45;&gt;home</title>
<path fill="none" stroke="black" d="M157.5,-380.88C157.5,-375 157.5,-365.79 157.5,-355.85"/>
<polygon fill="black" stroke="black" points="161,-355.97 157.5,-345.97 154,-355.97 161,-355.97"/>
</g>
<!-- list -->
<g id="node3" class="node">
<title>list</title>
<path fill="#e3f2fd" stroke="#0d47a1" d="M85,-199C85,-199 12,-199 12,-199 6,-199 0,-193 0,-187 0,-187 0,-146 0,-146 0,-140 6,-134 12,-134 12,-134 85,-134 85,-134 91,-134 97,-140 97,-146 97,-146 97,-187 97,-187 97,-193 91,-199 85,-199"/>
<text text-anchor="middle" x="48.5" y="-185.5" font-family="Helvetica,sans-Serif" font-size="10.00">PATIENT LIST</text>
<text text-anchor="middle" x="48.5" y="-162.25" font-family="Helvetica,sans-Serif" font-size="10.00">Table + Pagination</text>
<text text-anchor="middle" x="48.5" y="-151" font-family="Helvetica,sans-Serif" font-size="10.00">Checkboxes</text>
<text text-anchor="middle" x="48.5" y="-139.75" font-family="Helvetica,sans-Serif" font-size="10.00">Bulk Actions</text>
</g>
<!-- home&#45;&gt;list -->
<g id="edge2" class="edge">
<title>home&#45;&gt;list</title>
<path fill="none" stroke="black" d="M116.77,-296.87C91.08,-289.33 59.87,-275.34 44,-250 36.75,-238.41 35.52,-224.02 36.83,-210.51"/>
<polygon fill="black" stroke="black" points="40.25,-211.36 38.24,-200.95 33.32,-210.34 40.25,-211.36"/>
<text text-anchor="middle" x="74.75" y="-236.7" font-family="Times,serif" font-size="14.00">Browse All</text>
<text text-anchor="middle" x="74.75" y="-220.2" font-family="Times,serif" font-size="14.00">/ Search</text>
</g>
<!-- create -->
<g id="node4" class="node">
<title>create</title>
<path fill="#e8f5e9" stroke="#2e7d32" d="M231.88,-193.38C231.88,-193.38 167.12,-193.38 167.12,-193.38 161.12,-193.38 155.12,-187.38 155.12,-181.38 155.12,-181.38 155.12,-151.62 155.12,-151.62 155.12,-145.62 161.12,-139.62 167.12,-139.62 167.12,-139.62 231.88,-139.62 231.88,-139.62 237.88,-139.62 243.88,-145.62 243.88,-151.62 243.88,-151.62 243.88,-181.38 243.88,-181.38 243.88,-187.38 237.88,-193.38 231.88,-193.38"/>
<text text-anchor="middle" x="199.5" y="-179.88" font-family="Helvetica,sans-Serif" font-size="10.00">CREATE FORM</text>
<text text-anchor="middle" x="199.5" y="-156.62" font-family="Helvetica,sans-Serif" font-size="10.00">Empty Form</text>
<text text-anchor="middle" x="199.5" y="-145.38" font-family="Helvetica,sans-Serif" font-size="10.00">Validation</text>
</g>
<!-- home&#45;&gt;create -->
<g id="edge3" class="edge">
<title>home&#45;&gt;create</title>
<path fill="none" stroke="black" d="M121.87,-267.71C111.11,-251.83 104.35,-233.27 113.75,-217 120.94,-204.55 132.58,-194.95 145.01,-187.67"/>
<polygon fill="black" stroke="black" points="146.54,-190.81 153.73,-183.03 143.26,-184.64 146.54,-190.81"/>
<text text-anchor="middle" x="147.12" y="-236.7" font-family="Times,serif" font-size="14.00">Create</text>
<text text-anchor="middle" x="147.12" y="-220.2" font-family="Times,serif" font-size="14.00">New Patient</text>
</g>
<!-- update -->
<g id="node5" class="node">
<title>update</title>
<path fill="#fff3e0" stroke="#e65100" d="M255.88,-65C255.88,-65 191.12,-65 191.12,-65 185.12,-65 179.12,-59 179.12,-53 179.12,-53 179.12,-12 179.12,-12 179.12,-6 185.12,0 191.12,0 191.12,0 255.88,0 255.88,0 261.88,0 267.88,-6 267.88,-12 267.88,-12 267.88,-53 267.88,-53 267.88,-59 261.88,-65 255.88,-65"/>
<text text-anchor="middle" x="223.5" y="-51.5" font-family="Helvetica,sans-Serif" font-size="10.00">UPDATE FORM</text>
<text text-anchor="middle" x="223.5" y="-28.25" font-family="Helvetica,sans-Serif" font-size="10.00">Pre&#45;filled Form</text>
<text text-anchor="middle" x="223.5" y="-17" font-family="Helvetica,sans-Serif" font-size="10.00">Calendar</text>
<text text-anchor="middle" x="223.5" y="-5.75" font-family="Helvetica,sans-Serif" font-size="10.00">Visit History</text>
</g>
<!-- list&#45;&gt;update -->
<g id="edge4" class="edge">
<title>list&#45;&gt;update</title>
<path fill="none" stroke="black" d="M97.47,-146.85C115.39,-138.81 135.24,-128.38 151.5,-116 167.03,-104.18 181.69,-88.56 193.67,-74.1"/>
<polygon fill="black" stroke="black" points="196.27,-76.46 199.82,-66.47 190.82,-72.06 196.27,-76.46"/>
<text text-anchor="middle" x="206.63" y="-102.7" font-family="Times,serif" font-size="14.00">Select +</text>
<text text-anchor="middle" x="206.63" y="-86.2" font-family="Times,serif" font-size="14.00">Update</text>
</g>
<!-- delete -->
<g id="node6" class="node">
<title>delete</title>
<path fill="#ffebee" stroke="#c62828" d="M123.12,-59.38C123.12,-59.38 53.88,-59.38 53.88,-59.38 47.88,-59.38 41.88,-53.38 41.88,-47.38 41.88,-47.38 41.88,-17.62 41.88,-17.62 41.88,-11.62 47.88,-5.62 53.88,-5.62 53.88,-5.62 123.12,-5.62 123.12,-5.62 129.12,-5.62 135.12,-11.62 135.12,-17.62 135.12,-17.62 135.12,-47.38 135.12,-47.38 135.12,-53.38 129.12,-59.38 123.12,-59.38"/>
<text text-anchor="middle" x="88.5" y="-45.88" font-family="Helvetica,sans-Serif" font-size="10.00">DELETE MODAL</text>
<text text-anchor="middle" x="88.5" y="-22.62" font-family="Helvetica,sans-Serif" font-size="10.00">Confirmation</text>
<text text-anchor="middle" x="88.5" y="-11.38" font-family="Helvetica,sans-Serif" font-size="10.00">Bulk Delete</text>
</g>
<!-- list&#45;&gt;delete -->
<g id="edge5" class="edge">
<title>list&#45;&gt;delete</title>
<path fill="none" stroke="black" d="M39.81,-133.57C37.11,-117.85 36.25,-98.91 42.5,-83 44.49,-77.94 47.26,-73.1 50.47,-68.55"/>
<polygon fill="black" stroke="black" points="53.12,-70.84 56.62,-60.84 47.65,-66.48 53.12,-70.84"/>
<text text-anchor="middle" x="65" y="-102.7" font-family="Times,serif" font-size="14.00">Select +</text>
<text text-anchor="middle" x="65" y="-86.2" font-family="Times,serif" font-size="14.00">Delete</text>
</g>
<!-- create&#45;&gt;home -->
<g id="edge6" class="edge">
<title>create&#45;&gt;home</title>
<path fill="none" stroke="black" stroke-dasharray="5,2" d="M194.62,-193.82C191.3,-210.17 186.43,-231.53 180.5,-250 179.74,-252.37 178.92,-254.77 178.06,-257.19"/>
<polygon fill="black" stroke="black" points="174.85,-255.77 174.61,-266.37 181.4,-258.24 174.85,-255.77"/>
<text text-anchor="middle" x="221.77" y="-228.45" font-family="Times,serif" font-size="14.00">Back / Save</text>
</g>
<!-- update&#45;&gt;home -->
<g id="edge7" class="edge">
<title>update&#45;&gt;home</title>
<path fill="none" stroke="black" stroke-dasharray="5,2" d="M240.9,-65.32C262.66,-109.82 293.09,-191.72 258.5,-250 247.49,-268.55 227.79,-281.26 208.7,-289.76"/>
<polygon fill="black" stroke="black" points="207.54,-286.45 199.61,-293.48 210.19,-292.93 207.54,-286.45"/>
<text text-anchor="middle" x="306.77" y="-161.45" font-family="Times,serif" font-size="14.00">Back / Save</text>
</g>
<!-- delete&#45;&gt;list -->
<g id="edge8" class="edge">
<title>delete&#45;&gt;list</title>
<path fill="none" stroke="black" stroke-dasharray="5,2" d="M92.39,-59.52C93.87,-76.15 93.9,-97.9 87.5,-116 86.54,-118.71 85.37,-121.38 84.04,-124"/>
<polygon fill="black" stroke="black" points="81.11,-122.08 79,-132.47 87.12,-125.66 81.11,-122.08"/>
<text text-anchor="middle" x="120.01" y="-102.7" font-family="Times,serif" font-size="14.00">Confirm /</text>
<text text-anchor="middle" x="120.01" y="-86.2" font-family="Times,serif" font-size="14.00">Cancel</text>
</g>
</g>
</svg>
